<?xml version="1.0" encoding="UTF-8"?>
<svg xmlns="http://www.w3.org/2000/svg" xmlns:xlink="http://www.w3.org/1999/xlink" width="60px" height="52px" viewBox="0 0 60 52" version="1.1">
    <!-- Generator: Sketch 52.6 (67491) - http://www.bohemiancoding.com/sketch -->
    <title>013 - Basket</title>
    <desc>Created with Sketch.</desc>
    <g id="Page-1" stroke="none" stroke-width="1" fill="none" fill-rule="evenodd">
        <g id="013---Basket" transform="translate(-1.000000, -1.000000)">
            <g id="Icons_copy" transform="translate(2.000000, 2.000000)">
                <path d="M47.575,50 L10.425,50 C9.01066449,49.9998497 7.788539,49.011899 7.492,47.629 L2,22 L56,22 L50.508,47.629 C50.211461,49.011899 48.9893355,49.9998497 47.575,50 Z" id="Path" fill="#FFDC00"/>
                <path d="M53,22 L47.508,47.629 C47.211461,49.011899 45.9893355,49.9998497 44.575,50 L47.575,50 C48.9893355,49.9998497 50.211461,49.011899 50.508,47.629 L56,22 L53,22 Z" id="Path" fill="#FF8401"/>
                <rect id="Rectangle" fill="#FFDC00" x="0" y="14" width="58" height="8" rx="2"/>
                <path d="M56,14 L53,14 C54.1045695,14 55,14.8954305 55,16 L55,20 C55,21.1045695 54.1045695,22 53,22 L56,22 C57.1045695,22 58,21.1045695 58,20 L58,16 C58,14.8954305 57.1045695,14 56,14 Z" id="Path" fill="#FF8401"/>
                <path d="M13.02,14 L1.24,5.43 C0.371844591,4.80121257 -0.094909982,3.75703362 0.0155582154,2.69079527 C0.126026413,1.62455692 0.796934633,0.69824614 1.77555824,0.260795244 C2.75418184,-0.176655653 3.89184462,-0.0587874654 4.76,0.57 L23.23,14" id="Path" fill="#48BDFF"/>
                <path d="M4.76,0.57 C3.79714585,-0.124120436 2.51557645,-0.18527823 1.491,0.414 C1.58328102,0.461355373 1.6730662,0.513424105 1.76,0.57 L20.23,14 L23.23,14 L4.76,0.57 Z" id="Path" fill="#2C98F6"/>
                <path d="M34.77,14 L53.24,0.57 C54.1081554,-0.0587874382 55.2458181,-0.176655608 56.2244417,0.260795289 C57.2030653,0.698246187 57.8739735,1.62455695 57.9844417,2.69079529 C58.0949099,3.75703362 57.6281554,4.80121256 56.76,5.43 L44.98,14" id="Path" fill="#48BDFF"/>
                <path d="M57.43,1.24 C56.525428,0.00420253062 54.8352408,-0.351853231 53.509,0.414 C54.3886108,0.920864039 54.9506919,1.83967001 55.0014288,2.85359906 C55.0521657,3.8675281 54.5846166,4.83785664 53.76,5.43 L41.98,14 L44.98,14 L56.76,5.43 C58.0992174,4.45623788 58.3987851,2.58282219 57.43,1.24 Z" id="Path" fill="#2C98F6"/>
                <path d="M37.995,28.986 C37.9982832,29.5107865 37.7911895,30.0150148 37.42,30.386 L23.383,44.42 C22.8168399,44.9886641 21.9631088,45.1587006 21.2222747,44.8503487 C20.4814405,44.5419967 20.0004792,43.8164311 20.005,43.014 C20.0017168,42.4892135 20.2088105,41.9849852 20.58,41.614 L34.617,27.58 C35.1831601,27.0113359 36.0368912,26.8412994 36.7777253,27.1496513 C37.5185595,27.4580033 37.9995208,28.1835689 37.995,28.986 Z" id="Path" fill="#FFFFFF"/>
                <circle id="Oval" fill="#FFFFFF" cx="23" cy="30" r="3"/>
                <path d="M23,27 C22.4718941,27.0027453 21.9540847,27.1463511 21.5,27.416 C22.4273539,27.9458262 22.9996803,28.9319639 22.9996803,30 C22.9996803,31.0680361 22.4273539,32.0541738 21.5,32.584 C21.9540847,32.8536489 22.4718941,32.9972547 23,33 C24.6568542,33 26,31.6568542 26,30 C26,28.3431458 24.6568542,27 23,27 Z" id="Path" fill="#CCCCCC"/>
                <circle id="Oval" fill="#FFFFFF" cx="35" cy="42" r="3"/>
                <path d="M35,39 C34.4718941,39.0027453 33.9540847,39.1463511 33.5,39.416 C34.4273539,39.9458262 34.9996803,40.9319639 34.9996803,42 C34.9996803,43.0680361 34.4273539,44.0541738 33.5,44.584 C33.9540847,44.8536489 34.4718941,44.9972547 35,45 C36.6568542,44.9999999 37.9999999,43.6568542 37.9999999,42 C37.9999999,40.3431458 36.6568542,39.0000001 35,39 Z" id="Path" fill="#CCCCCC"/>
            </g>
            <g id="Icons_copy_2" transform="translate(1.000000, 2.000000)" fill="#FFFFFF">
                <path d="M3,22 L8.492,47.629 C8.788539,49.011899 10.0106645,49.9998497 11.425,50 L14.425,50 C13.0106645,49.9998497 11.788539,49.011899 11.492,47.629 L6,22 C4.8954305,22 4,21.1045695 4,20 L4,16 C4,14.8954305 4.8954305,14 6,14 L3,14 C1.8954305,14 1,14.8954305 1,16 L1,20 C1,21.1045695 1.8954305,22 3,22 Z" id="Path"/>
                <path d="M2.24,5.43 L14.02,14 L17.02,14 L5.24,5.43 C4.41538338,4.83785664 3.94783435,3.8675281 3.99857123,2.85359906 C4.04930811,1.83967001 4.61138919,0.920864039 5.491,0.414 C5.423,0.376 5.359,0.33 5.291,0.297 C5.242,0.273 5.191,0.254 5.142,0.233 C5.02419445,0.18429154 4.90325676,0.143533534 4.78,0.111 C4.727,0.097 4.674,0.081 4.621,0.069 C4.45842651,0.0338102932 4.29317365,0.0124010159 4.127,0.005 C4.082,0.005 4.037,0.005 3.991,0.005 C3.86864512,0.00519583621 3.74641682,0.0128768498 3.625,0.028 C3.552,0.037 3.48,0.051 3.408,0.066 C3.31311791,0.085388421 3.2193216,0.109755433 3.127,0.139 C3.054,0.161 2.981,0.182 2.91,0.209 C2.76675078,0.265682548 2.62773077,0.332519091 2.494,0.409 C1.61184468,0.914822634 1.04749419,1.83456441 0.996118196,2.85015047 C0.944742203,3.86573654 1.41339421,4.83773536 2.24,5.43 Z" id="Path"/>
            </g>
            <g id="Icons">
                <rect id="Rectangle" fill="#FFFFFF" transform="translate(4.837684, 27.910634) rotate(-12.095000) translate(-4.837684, -27.910634) " x="3.83768406" y="23.9106344" width="2" height="8"/>
                <path d="M4.858,28.911 C4.30571525,28.9137614 3.85576142,28.4682847 3.853,27.916 C3.85023858,27.3637153 4.29571525,26.9137614 4.848,26.911 L4.858,26.911 C5.41028475,26.911 5.858,27.3587153 5.858,27.911 C5.858,28.4632847 5.41028475,28.911 4.858,28.911 Z" id="Path" fill="#000000"/>
                <path d="M13.233,49 L17,49 C17.5522847,49 18,48.5522847 18,48 C18,47.4477153 17.5522847,47 17,47 L14.042,47 L13.586,44.875 C13.4705725,44.3348655 12.9391345,43.9905725 12.399,44.106 C11.8588655,44.2214275 11.5145725,44.7528655 11.63,45.293 L12.255,48.209 C12.3536004,48.6703536 12.7612277,49.0000398 13.233,49 Z" id="Path" fill="#000000"/>
                <path d="M58,15 L50.054,15 L59.354,8.237 C61.142298,6.93913084 61.5398692,4.43729802 60.242,2.649 C58.9441308,0.86070198 56.442298,0.463130838 54.654,1.761 L36.445,15 L25.555,15 L7.346,1.76 C5.55687355,0.463787692 3.05571231,0.863373553 1.7595,2.6525 C0.463287692,4.44162645 0.862873553,6.94278769 2.652,8.239 L11.946,15 L4,15 C2.34314575,15 1,16.3431458 1,18 L1,22 C1,23.6568542 2.34314575,25 4,25 L56.763,25 L51.53,49.419 C51.3293936,50.3390494 50.5166582,50.996305 49.575,51 L12.425,51 C11.4833418,50.996305 10.6706064,50.3390494 10.47,49.419 L6.654,31.613 C6.53829634,31.0728655 6.00663449,30.7287963 5.4665,30.8445 C4.92636551,30.9602037 4.58229634,31.4918655 4.698,32.032 L8.514,49.832 C8.91354269,51.6744282 10.539766,52.9917065 12.425,53 L49.575,53 C51.4584243,52.9923269 53.0840277,51.6780446 53.486,49.838 L58.837,24.866 C60.1144157,24.4969552 60.9953946,23.3296479 61,22 L61,18 C61,16.3431458 59.6568542,15 58,15 Z M55.827,3.38 C56.7222536,2.73272227 57.9727223,2.93374642 58.62,3.829 C59.2672777,4.72425358 59.0662536,5.97472227 58.171,6.622 L46.655,15 L39.845,15 L55.827,3.38 Z M3.827,6.623 C2.93091799,5.97544613 2.72944613,4.72408201 3.377,3.828 C4.02455387,2.93191799 5.27591799,2.73044613 6.172,3.378 L22.155,15 L15.345,15 L3.827,6.623 Z M59,22 C59,22.5522847 58.5522847,23 58,23 L4,23 C3.44771525,23 3,22.5522847 3,22 L3,18 C3,17.4477153 3.44771525,17 4,17 L58,17 C58.5522847,17 59,17.4477153 59,18 L59,22 Z" id="Shape" fill="#000000" fill-rule="nonzero"/>
                <path d="M35.91,28.873 L21.873,42.91 C20.7270408,44.0776214 20.7358087,45.9505093 21.8926497,47.1073503 C23.0494907,48.2641913 24.9223786,48.2729592 26.09,47.127 L40.127,33.09 C41.2815818,31.92142 41.2815818,30.04158 40.127,28.873 C38.946306,27.7483016 37.090694,27.7483016 35.91,28.873 Z M38.71,31.673 L24.675,45.713 C24.286421,46.0832858 23.675579,46.0832858 23.287,45.713 C22.9129903,45.3255309 22.9129903,44.7114691 23.287,44.324 L37.325,30.287 C37.7106313,29.9162132 38.322104,29.9223228 38.7002496,30.3007408 C39.0783952,30.6791589 39.0840644,31.2906358 38.713,31.676 L38.71,31.673 Z" id="Shape" fill="#000000" fill-rule="nonzero"/>
                <path d="M25,28 C22.790861,28 21,29.790861 21,32 C21,34.209139 22.790861,36 25,36 C27.209139,36 29,34.209139 29,32 C29,29.790861 27.209139,28 25,28 Z M25,34 C23.8954305,34 23,33.1045695 23,32 C23,30.8954305 23.8954305,30 25,30 C26.1045695,30 27,30.8954305 27,32 C27,33.1045695 26.1045695,34 25,34 Z" id="Shape" fill="#000000" fill-rule="nonzero"/>
                <path d="M37,40 C34.790861,40 33,41.790861 33,44 C33,46.209139 34.790861,48 37,48 C39.209139,48 41,46.209139 41,44 C41,41.790861 39.209139,40 37,40 Z M37,46 C35.8954305,46 35,45.1045695 35,44 C35,42.8954305 35.8954305,42 37,42 C38.1045695,42 39,42.8954305 39,44 C39,45.1045695 38.1045695,46 37,46 Z" id="Shape" fill="#000000" fill-rule="nonzero"/>
            </g>
        </g>
    </g>
</svg>
